<svg xmlns="http://www.w3.org/2000/svg" xmlns:xlink="http://www.w3.org/1999/xlink" id="Group_35" data-name="Group 35" width="136.452" height="51.009" viewBox="0 0 136.452 51.009"><defs><clipPath id="clip-path"><path id="Path_1" data-name="Path 1" d="M109.036,0l-.087,36.073H133.09V31.1H114.635L114.549,0Z" transform="translate(-108.949)" fill="#fff"></path></clipPath><clipPath id="clip-path-2"><path id="Path_2" data-name="Path 2" d="M231.762,0V4.969h18.455l.087,31.1h5.513L255.9,0Z" transform="translate(-231.762)" fill="#fff"></path></clipPath><clipPath id="clip-path-3"><rect id="Rectangle_5" data-name="Rectangle 5" width="30.217" height="4.568" fill="#fff"></rect></clipPath><clipPath id="clip-path-4"><rect id="Rectangle_7" data-name="Rectangle 7" width="4.567" height="36.073" fill="#fff"></rect></clipPath><clipPath id="clip-path-6"><rect id="Rectangle_11" data-name="Rectangle 11" width="30.217" height="4.567" fill="#fff"></rect></clipPath><clipPath id="clip-path-10"><path id="Path_3" data-name="Path 3" d="M76.754,140.826h2.171a.994.994,0,0,1,.433.085.61.61,0,0,1,.269.242.726.726,0,0,1,.092.376.647.647,0,0,1-.209.511.858.858,0,0,1-.585.184H76.754Zm-1.078-.9V144.8h1.078v-1.674h2.469a1.661,1.661,0,0,0,.841-.206,1.438,1.438,0,0,0,.557-.571,1.834,1.834,0,0,0,0-1.653,1.443,1.443,0,0,0-.546-.564,1.612,1.612,0,0,0-.826-.206Z" transform="translate(-75.676 -139.925)" fill="#fff"></path></clipPath><clipPath id="clip-path-11"><path id="Path_4" data-name="Path 4" d="M107.273,140.826h2.483a.88.88,0,0,1,.383.074.509.509,0,0,1,.234.22.732.732,0,0,1,.078.351.7.7,0,0,1-.181.5.666.666,0,0,1-.514.2h-2.483Zm-1.078-.9V144.8h1.078V143.06h2.3l.894,1.738h1.213l-1.036-1.943a1.488,1.488,0,0,0,.691-.592,1.573,1.573,0,0,0,.223-.813,1.76,1.76,0,0,0-.163-.762,1.312,1.312,0,0,0-.493-.553,1.552,1.552,0,0,0-.848-.21Z" transform="translate(-106.195 -139.925)" fill="#fff"></path></clipPath><clipPath id="clip-path-12"><path id="Path_5" data-name="Path 5" d="M139.774,143.711a2.033,2.033,0,0,1-.642-.291,1.314,1.314,0,0,1-.422-.482,1.458,1.458,0,0,1-.149-.674V142.1a1.433,1.433,0,0,1,.149-.67,1.326,1.326,0,0,1,.422-.479,1.978,1.978,0,0,1,.642-.287,3.439,3.439,0,0,1,1.618,0,1.979,1.979,0,0,1,.642.287,1.362,1.362,0,0,1,.426.479,1.41,1.41,0,0,1,.152.67v.163a1.435,1.435,0,0,1-.152.674,1.349,1.349,0,0,1-.426.482,2.035,2.035,0,0,1-.642.291,3.34,3.34,0,0,1-1.618,0m-.865-3.749a2.252,2.252,0,0,0-1.462,2.223,2.4,2.4,0,0,0,.379,1.373,2.36,2.36,0,0,0,1.082.858,4.9,4.9,0,0,0,3.348,0,2.356,2.356,0,0,0,1.082-.858,2.666,2.666,0,0,0,0-2.742,2.371,2.371,0,0,0-1.082-.854,4.909,4.909,0,0,0-3.348,0" transform="translate(-137.447 -139.668)" fill="#fff"></path></clipPath><clipPath id="clip-path-13"><path id="Path_6" data-name="Path 6" d="M191.891,139.952a2.271,2.271,0,0,0-1.089.847,2.456,2.456,0,0,0-.376,1.394,2.343,2.343,0,0,0,.738,1.894,3.356,3.356,0,0,0,2.213.624,5.451,5.451,0,0,0,.919-.074,3.479,3.479,0,0,0,.8-.234,2.107,2.107,0,0,0,.628-.415l.113.639h.667V141.9h-3.029v.851h1.972v.057a.76.76,0,0,1-.209.532,1.354,1.354,0,0,1-.639.349,4.159,4.159,0,0,1-1.1.12,3.167,3.167,0,0,1-1.047-.156,1.377,1.377,0,0,1-.684-.494,1.494,1.494,0,0,1-.241-.89v-.17a1.436,1.436,0,0,1,.156-.688,1.317,1.317,0,0,1,.44-.479,2.011,2.011,0,0,1,.67-.277,3.751,3.751,0,0,1,.841-.089,4.709,4.709,0,0,1,.677.046,2.491,2.491,0,0,1,.578.149,1.011,1.011,0,0,1,.4.28.65.65,0,0,1,.149.433h1.05a1.5,1.5,0,0,0-.209-.8,1.651,1.651,0,0,0-.6-.564,3.09,3.09,0,0,0-.918-.333,5.857,5.857,0,0,0-1.178-.109,4.606,4.606,0,0,0-1.705.284" transform="translate(-190.426 -139.668)" fill="#fff"></path></clipPath><clipPath id="clip-path-14"><path id="Path_7" data-name="Path 7" d="M226.054,140.826h2.483a.878.878,0,0,1,.382.074.506.506,0,0,1,.234.22.732.732,0,0,1,.078.351.7.7,0,0,1-.181.5.665.665,0,0,1-.514.2h-2.483Zm-1.078-.9V144.8h1.078V143.06h2.3l.894,1.738h1.213l-1.036-1.943a1.489,1.489,0,0,0,.691-.592,1.576,1.576,0,0,0,.223-.813,1.755,1.755,0,0,0-.163-.762,1.309,1.309,0,0,0-.493-.553,1.554,1.554,0,0,0-.848-.21Z" transform="translate(-224.976 -139.925)" fill="#fff"></path></clipPath><clipPath id="clip-path-15"><path id="Path_8" data-name="Path 8" d="M258.554,143.711a2.029,2.029,0,0,1-.642-.291,1.312,1.312,0,0,1-.422-.482,1.463,1.463,0,0,1-.149-.674V142.1a1.438,1.438,0,0,1,.149-.67,1.324,1.324,0,0,1,.422-.479,1.973,1.973,0,0,1,.642-.287,3.439,3.439,0,0,1,1.618,0,1.981,1.981,0,0,1,.642.287,1.363,1.363,0,0,1,.426.479,1.411,1.411,0,0,1,.153.67v.163a1.436,1.436,0,0,1-.153.674,1.35,1.35,0,0,1-.426.482,2.037,2.037,0,0,1-.642.291,3.34,3.34,0,0,1-1.618,0m-.865-3.749a2.252,2.252,0,0,0-1.461,2.223,2.4,2.4,0,0,0,.379,1.373,2.361,2.361,0,0,0,1.082.858,4.9,4.9,0,0,0,3.348,0,2.36,2.36,0,0,0,1.082-.858,2.666,2.666,0,0,0,0-2.742,2.374,2.374,0,0,0-1.082-.854,4.91,4.91,0,0,0-3.348,0" transform="translate(-256.228 -139.668)" fill="#fff"></path></clipPath><clipPath id="clip-path-16"><path id="Path_9" data-name="Path 9" d="M295.084,139.925v2.59a1.392,1.392,0,0,1-.422,1.085,2.079,2.079,0,0,1-2.4,0,1.39,1.39,0,0,1-.422-1.085v-2.59h-1.078v2.639a2.466,2.466,0,0,0,.294,1.231,1.95,1.95,0,0,0,.894.806,4.208,4.208,0,0,0,3.032,0,1.954,1.954,0,0,0,.89-.806,2.469,2.469,0,0,0,.295-1.231v-2.639Z" transform="translate(-290.757 -139.925)" fill="#fff"></path></clipPath><clipPath id="clip-path-17"><path id="Path_10" data-name="Path 10" d="M324.381,140.826h2.171a1,1,0,0,1,.433.085.61.61,0,0,1,.269.242.726.726,0,0,1,.092.376.647.647,0,0,1-.209.511.857.857,0,0,1-.585.184h-2.171Zm-1.078-.9V144.8h1.078v-1.674h2.469a1.66,1.66,0,0,0,.84-.206,1.434,1.434,0,0,0,.557-.571,1.832,1.832,0,0,0,0-1.653,1.445,1.445,0,0,0-.546-.564,1.61,1.61,0,0,0-.826-.206Z" transform="translate(-323.303 -139.925)" fill="#fff"></path></clipPath></defs><g id="Group_2" data-name="Group 2" transform="translate(35.857)"><g id="Group_1" data-name="Group 1" clip-path="url(#clip-path)"><rect id="Rectangle_2" data-name="Rectangle 2" width="39.551" height="43.382" transform="translate(-16.178 10.062) rotate(-31.88)" fill="#fff"></rect></g></g><g id="Group_4" data-name="Group 4" transform="translate(76.276)"><g id="Group_3" data-name="Group 3" clip-path="url(#clip-path-2)"><rect id="Rectangle_3" data-name="Rectangle 3" width="39.551" height="43.382" transform="matrix(0.849, -0.528, 0.528, 0.849, -16.178, 10.062)" fill="#fff"></rect></g></g><g id="Group_6" data-name="Group 6" transform="translate(0 0)"><g id="Group_5" data-name="Group 5" clip-path="url(#clip-path-3)"><rect id="Rectangle_4" data-name="Rectangle 4" width="28.071" height="19.837" transform="translate(-2.049 1.274) rotate(-31.88)" fill="#fff"></rect></g></g><g id="Group_8" data-name="Group 8" transform="translate(65.754)"><g id="Group_7" data-name="Group 7" clip-path="url(#clip-path-4)"><rect id="Rectangle_6" data-name="Rectangle 6" width="22.93" height="33.044" transform="matrix(0.849, -0.528, 0.528, 0.849, -16.178, 10.062)" fill="#fff"></rect></g></g><g id="Group_10" data-name="Group 10" transform="translate(0 15.839)"><g id="Group_9" data-name="Group 9" clip-path="url(#clip-path-3)"><rect id="Rectangle_8" data-name="Rectangle 8" width="28.071" height="19.837" transform="translate(-2.049 1.274) rotate(-31.88)" fill="#fff"></rect></g></g><g id="Group_12" data-name="Group 12" transform="translate(0 31.505)"><g id="Group_11" data-name="Group 11" clip-path="url(#clip-path-6)"><rect id="Rectangle_10" data-name="Rectangle 10" width="28.071" height="19.837" transform="translate(-2.048 1.274) rotate(-31.88)" fill="#fff"></rect></g></g><g id="Group_14" data-name="Group 14" transform="translate(106.235 0)"><g id="Group_13" data-name="Group 13" clip-path="url(#clip-path-3)"><rect id="Rectangle_12" data-name="Rectangle 12" width="28.071" height="19.837" transform="translate(-2.049 1.274) rotate(-31.88)" fill="#fff"></rect></g></g><g id="Group_16" data-name="Group 16" transform="translate(106.235 15.839)"><g id="Group_15" data-name="Group 15" clip-path="url(#clip-path-3)"><rect id="Rectangle_14" data-name="Rectangle 14" width="28.071" height="19.837" transform="translate(-2.049 1.274) rotate(-31.88)" fill="#fff"></rect></g></g><g id="Group_18" data-name="Group 18" transform="translate(106.235 31.505)"><g id="Group_17" data-name="Group 17" clip-path="url(#clip-path-6)"><rect id="Rectangle_16" data-name="Rectangle 16" width="28.071" height="19.837" transform="translate(-2.048 1.274) rotate(-31.88)" fill="#fff"></rect></g></g><g id="Group_20" data-name="Group 20" transform="translate(24.906 46.051)"><g id="Group_19" data-name="Group 19" clip-path="url(#clip-path-10)"><rect id="Rectangle_18" data-name="Rectangle 18" width="6.941" height="6.854" transform="translate(-2.186 1.359) rotate(-31.88)" fill="#fff"></rect></g></g><g id="Group_22" data-name="Group 22" transform="translate(34.95 46.051)"><g id="Group_21" data-name="Group 21" clip-path="url(#clip-path-11)"><rect id="Rectangle_19" data-name="Rectangle 19" width="7.23" height="7.034" transform="matrix(0.849, -0.528, 0.528, 0.849, -2.186, 1.359)" fill="#fff"></rect></g></g><g id="Group_24" data-name="Group 24" transform="translate(45.236 45.967)"><g id="Group_23" data-name="Group 23" clip-path="url(#clip-path-12)"><rect id="Rectangle_20" data-name="Rectangle 20" width="7.988" height="7.594" transform="matrix(0.849, -0.528, 0.528, 0.849, -2.262, 1.407)" fill="#fff"></rect></g></g><g id="Group_26" data-name="Group 26" transform="translate(62.672 45.967)"><g id="Group_25" data-name="Group 25" clip-path="url(#clip-path-13)"><rect id="Rectangle_21" data-name="Rectangle 21" width="7.825" height="7.493" transform="translate(-2.262 1.407) rotate(-31.88)" fill="#fff"></rect></g></g><g id="Group_28" data-name="Group 28" transform="translate(74.043 46.051)"><g id="Group_27" data-name="Group 27" clip-path="url(#clip-path-14)"><rect id="Rectangle_22" data-name="Rectangle 22" width="7.23" height="7.034" transform="translate(-2.186 1.359) rotate(-31.88)" fill="#fff"></rect></g></g><g id="Group_30" data-name="Group 30" transform="translate(84.328 45.967)"><g id="Group_29" data-name="Group 29" clip-path="url(#clip-path-15)"><rect id="Rectangle_23" data-name="Rectangle 23" width="7.988" height="7.594" transform="matrix(0.849, -0.528, 0.528, 0.849, -2.262, 1.407)" fill="#fff"></rect></g></g><g id="Group_32" data-name="Group 32" transform="translate(95.692 46.051)"><g id="Group_31" data-name="Group 31" clip-path="url(#clip-path-16)"><rect id="Rectangle_24" data-name="Rectangle 24" width="7.209" height="7.065" transform="translate(-2.224 1.383) rotate(-31.88)" fill="#fff"></rect></g></g><g id="Group_34" data-name="Group 34" transform="translate(106.404 46.051)"><g id="Group_33" data-name="Group 33" clip-path="url(#clip-path-17)"><rect id="Rectangle_25" data-name="Rectangle 25" width="6.941" height="6.854" transform="translate(-2.186 1.359) rotate(-31.88)" fill="#fff"></rect></g></g></svg>