<svg xmlns="http://www.w3.org/2000/svg" width="34.129" height="34.129" viewBox="0 0 34.129 34.129"><g id="Group_5322" data-name="Group 5322" transform="translate(-279 -2409)"><circle id="Ellipse_5" data-name="Ellipse 5" cx="6.357" cy="6.357" r="6.357" transform="translate(289.707 2419.707)" fill="#080808"></circle><g id="Path_7766" data-name="Path 7766" transform="translate(279 2409)" fill="none" opacity="0.5"><path d="M17.065,0A17.065,17.065,0,1,1,5.4,4.61,16.892,16.892,0,0,1,17.065,0Z" stroke="none"></path><path d="M 17.064697265625 1.499996185302734 C 13.0902271270752 1.499996185302734 9.216556549072266 3.028276443481445 6.436416625976562 5.693477630615234 C 3.253116607666016 8.742206573486328 1.499996185302734 12.78057670593262 1.499996185302734 17.064697265625 C 1.499996185302734 21.22217750549316 3.119007110595703 25.13081741333008 6.058797836303711 28.07059669494629 C 8.998577117919922 31.0103874206543 12.90721702575684 32.62939834594727 17.064697265625 32.62939834594727 C 21.22217750549316 32.62939834594727 25.13081741333008 31.0103874206543 28.07059669494629 28.07059669494629 C 31.0103874206543 25.13081741333008 32.62939834594727 21.22217750549316 32.62939834594727 17.064697265625 C 32.62939834594727 12.90721702575684 31.0103874206543 8.998577117919922 28.07059669494629 6.058797836303711 C 25.13081741333008 3.119007110595703 21.22217750549316 1.499996185302734 17.064697265625 1.499996185302734 M 17.064697265625 -3.814697265625e-06 C 26.48926734924316 -3.814697265625e-06 34.12939834594727 7.640127182006836 34.12939834594727 17.064697265625 C 34.12939834594727 26.48926734924316 26.48926734924316 34.12939834594727 17.064697265625 34.12939834594727 C 7.640127182006836 34.12939834594727 -3.814697265625e-06 26.48926734924316 -3.814697265625e-06 17.064697265625 C -3.814697265625e-06 12.22046661376953 2.018486022949219 7.847677230834961 5.398906707763672 4.610166549682617 C 8.325496673583984 1.8045654296875 12.4843578338623 -3.814697265625e-06 17.064697265625 -3.814697265625e-06 Z" stroke="none" fill="#000"></path></g></g></svg>