<svg xmlns="http://www.w3.org/2000/svg" xmlns:xlink="http://www.w3.org/1999/xlink" id="Group_5314" data-name="Group 5314" width="363.817" height="136.005" viewBox="0 0 363.817 136.005"><defs><clipPath id="clip-path"><path id="Path_1" data-name="Path 1" d="M109.18,0l-.231,96.18h64.367V82.931H124.111L123.879,0Z" transform="translate(-108.949)" fill="#fff"></path></clipPath><clipPath id="clip-path-2"><path id="Path_2" data-name="Path 2" d="M231.762,0V13.249h49.206L281.2,96.18h14.7L296.129,0Z" transform="translate(-231.762)" fill="#fff"></path></clipPath><clipPath id="clip-path-3"><rect id="Rectangle_5" data-name="Rectangle 5" width="80.567" height="12.179" fill="#fff"></rect></clipPath><clipPath id="clip-path-4"><rect id="Rectangle_7" data-name="Rectangle 7" width="12.178" height="96.18" fill="#fff"></rect></clipPath><clipPath id="clip-path-6"><rect id="Rectangle_11" data-name="Rectangle 11" width="80.567" height="12.178" fill="#fff"></rect></clipPath><clipPath id="clip-path-10"><path id="Path_3" data-name="Path 3" d="M78.55,142.329h5.788a2.651,2.651,0,0,1,1.154.225,1.627,1.627,0,0,1,.718.644,1.937,1.937,0,0,1,.247,1,1.725,1.725,0,0,1-.558,1.362,2.287,2.287,0,0,1-1.56.49H78.55Zm-2.874-2.4v12.994H78.55v-4.463h6.582a4.43,4.43,0,0,0,2.241-.549,3.833,3.833,0,0,0,1.485-1.523,4.889,4.889,0,0,0,.009-4.407,3.847,3.847,0,0,0-1.455-1.5,4.3,4.3,0,0,0-2.2-.548Z" transform="translate(-75.676 -139.925)" fill="#fff"></path></clipPath><clipPath id="clip-path-11"><path id="Path_4" data-name="Path 4" d="M109.07,142.329h6.619a2.346,2.346,0,0,1,1.021.2,1.358,1.358,0,0,1,.625.587,1.953,1.953,0,0,1,.208.936,1.876,1.876,0,0,1-.483,1.331,1.775,1.775,0,0,1-1.371.52H109.07Zm-2.875-2.4v12.994h2.875v-4.635H115.2l2.382,4.635h3.234l-2.762-5.182a3.967,3.967,0,0,0,1.844-1.58,4.194,4.194,0,0,0,.6-2.167,4.692,4.692,0,0,0-.434-2.032,3.5,3.5,0,0,0-1.314-1.474,4.139,4.139,0,0,0-2.26-.559Z" transform="translate(-106.195 -139.925)" fill="#fff"></path></clipPath><clipPath id="clip-path-12"><path id="Path_5" data-name="Path 5" d="M143.651,150.447a5.423,5.423,0,0,1-1.712-.776,3.5,3.5,0,0,1-1.125-1.286,3.888,3.888,0,0,1-.4-1.8v-.433a3.821,3.821,0,0,1,.4-1.788,3.536,3.536,0,0,1,1.125-1.278,5.272,5.272,0,0,1,1.712-.764,9.168,9.168,0,0,1,4.313,0,5.275,5.275,0,0,1,1.711.764,3.632,3.632,0,0,1,1.135,1.278,3.76,3.76,0,0,1,.406,1.788v.433a3.826,3.826,0,0,1-.406,1.8,3.6,3.6,0,0,1-1.135,1.286,5.426,5.426,0,0,1-1.711.776,8.906,8.906,0,0,1-4.313,0m-2.307-9.995a6,6,0,0,0-3.9,5.928,6.4,6.4,0,0,0,1.012,3.66,6.294,6.294,0,0,0,2.885,2.288,13.073,13.073,0,0,0,8.926,0,6.282,6.282,0,0,0,2.884-2.288,7.107,7.107,0,0,0,0-7.31,6.322,6.322,0,0,0-2.884-2.278,13.088,13.088,0,0,0-8.926,0" transform="translate(-137.447 -139.668)" fill="#fff"></path></clipPath><clipPath id="clip-path-13"><path id="Path_6" data-name="Path 6" d="M194.332,140.424a6.056,6.056,0,0,0-2.9,2.26,6.547,6.547,0,0,0-1,3.716,6.248,6.248,0,0,0,1.966,5.05q1.967,1.665,5.9,1.663a14.532,14.532,0,0,0,2.45-.2,9.278,9.278,0,0,0,2.138-.624,5.619,5.619,0,0,0,1.674-1.107l.3,1.7h1.778v-7.264h-8.076v2.27h5.258v.151a2.026,2.026,0,0,1-.557,1.418,3.61,3.61,0,0,1-1.7.929,11.09,11.09,0,0,1-2.921.32,8.443,8.443,0,0,1-2.791-.415,3.671,3.671,0,0,1-1.824-1.316,3.984,3.984,0,0,1-.643-2.373v-.454a3.828,3.828,0,0,1,.415-1.835,3.511,3.511,0,0,1,1.174-1.277,5.361,5.361,0,0,1,1.787-.738,10,10,0,0,1,2.242-.237,12.558,12.558,0,0,1,1.805.124,6.642,6.642,0,0,1,1.542.4,2.7,2.7,0,0,1,1.079.747,1.735,1.735,0,0,1,.4,1.154h2.8a4,4,0,0,0-.558-2.137,4.4,4.4,0,0,0-1.589-1.5,8.238,8.238,0,0,0-2.447-.889,15.619,15.619,0,0,0-3.142-.291,12.281,12.281,0,0,0-4.547.756" transform="translate(-190.426 -139.668)" fill="#fff"></path></clipPath><clipPath id="clip-path-14"><path id="Path_7" data-name="Path 7" d="M227.85,142.329h6.621a2.34,2.34,0,0,1,1.02.2,1.35,1.35,0,0,1,.625.587,1.952,1.952,0,0,1,.208.936,1.879,1.879,0,0,1-.482,1.331,1.773,1.773,0,0,1-1.371.52H227.85Zm-2.874-2.4v12.994h2.874v-4.635h6.129l2.382,4.635H239.6l-2.762-5.182a3.972,3.972,0,0,0,1.844-1.58,4.2,4.2,0,0,0,.6-2.167,4.68,4.68,0,0,0-.435-2.032,3.491,3.491,0,0,0-1.314-1.474,4.144,4.144,0,0,0-2.261-.559Z" transform="translate(-224.976 -139.925)" fill="#fff"></path></clipPath><clipPath id="clip-path-15"><path id="Path_8" data-name="Path 8" d="M262.431,150.447a5.409,5.409,0,0,1-1.711-.776,3.5,3.5,0,0,1-1.126-1.286,3.9,3.9,0,0,1-.4-1.8v-.433a3.833,3.833,0,0,1,.4-1.788,3.53,3.53,0,0,1,1.126-1.278,5.258,5.258,0,0,1,1.711-.764,9.169,9.169,0,0,1,4.313,0,5.28,5.28,0,0,1,1.712.764,3.634,3.634,0,0,1,1.135,1.278,3.762,3.762,0,0,1,.407,1.788v.433a3.828,3.828,0,0,1-.407,1.8,3.6,3.6,0,0,1-1.135,1.286,5.431,5.431,0,0,1-1.712.776,8.907,8.907,0,0,1-4.313,0m-2.307-9.995a6,6,0,0,0-3.9,5.928,6.4,6.4,0,0,0,1.012,3.66,6.3,6.3,0,0,0,2.884,2.288,13.076,13.076,0,0,0,8.927,0,6.291,6.291,0,0,0,2.884-2.288,7.107,7.107,0,0,0,0-7.31,6.331,6.331,0,0,0-2.884-2.278,13.09,13.09,0,0,0-8.927,0" transform="translate(-256.228 -139.668)" fill="#fff"></path></clipPath><clipPath id="clip-path-16"><path id="Path_9" data-name="Path 9" d="M302.294,139.925v6.905a3.711,3.711,0,0,1-1.125,2.892,5.542,5.542,0,0,1-6.412,0,3.705,3.705,0,0,1-1.125-2.892v-6.905h-2.875v7.036a6.574,6.574,0,0,0,.785,3.282,5.2,5.2,0,0,0,2.383,2.148,11.219,11.219,0,0,0,8.085,0,5.211,5.211,0,0,0,2.374-2.148,6.584,6.584,0,0,0,.785-3.282v-7.036Z" transform="translate(-290.757 -139.925)" fill="#fff"></path></clipPath><clipPath id="clip-path-17"><path id="Path_10" data-name="Path 10" d="M326.177,142.329h5.788a2.655,2.655,0,0,1,1.155.225,1.626,1.626,0,0,1,.718.644,1.936,1.936,0,0,1,.246,1,1.725,1.725,0,0,1-.558,1.362,2.284,2.284,0,0,1-1.56.49h-5.788Zm-2.874-2.4v12.994h2.874v-4.463h6.583a4.426,4.426,0,0,0,2.24-.549,3.822,3.822,0,0,0,1.485-1.523,4.886,4.886,0,0,0,.01-4.407,3.851,3.851,0,0,0-1.457-1.5,4.292,4.292,0,0,0-2.2-.548Z" transform="translate(-323.303 -139.925)" fill="#fff"></path></clipPath></defs><g id="Group_2" data-name="Group 2" transform="translate(95.604)"><g id="Group_1" data-name="Group 1" clip-path="url(#clip-path)"><rect id="Rectangle_2" data-name="Rectangle 2" width="105.454" height="115.667" transform="translate(-43.134 26.827) rotate(-31.88)" fill="#fff"></rect></g></g><g id="Group_4" data-name="Group 4" transform="translate(203.373)"><g id="Group_3" data-name="Group 3" clip-path="url(#clip-path-2)"><rect id="Rectangle_3" data-name="Rectangle 3" width="105.454" height="115.667" transform="matrix(0.849, -0.528, 0.528, 0.849, -43.134, 26.827)" fill="#fff"></rect></g></g><g id="Group_6" data-name="Group 6" transform="translate(0 0)"><g id="Group_5" data-name="Group 5" clip-path="url(#clip-path-3)"><rect id="Rectangle_4" data-name="Rectangle 4" width="74.846" height="52.892" transform="translate(-5.462 3.397) rotate(-31.88)" fill="#fff"></rect></g></g><g id="Group_8" data-name="Group 8" transform="translate(175.319)"><g id="Group_7" data-name="Group 7" clip-path="url(#clip-path-4)"><rect id="Rectangle_6" data-name="Rectangle 6" width="61.137" height="88.104" transform="matrix(0.849, -0.528, 0.528, 0.849, -43.134, 26.827)" fill="#fff"></rect></g></g><g id="Group_10" data-name="Group 10" transform="translate(0 42.232)"><g id="Group_9" data-name="Group 9" clip-path="url(#clip-path-3)"><rect id="Rectangle_8" data-name="Rectangle 8" width="74.846" height="52.892" transform="translate(-5.462 3.397) rotate(-31.88)" fill="#fff"></rect></g></g><g id="Group_12" data-name="Group 12" transform="translate(0 84.002)"><g id="Group_11" data-name="Group 11" clip-path="url(#clip-path-6)"><rect id="Rectangle_10" data-name="Rectangle 10" width="74.846" height="52.891" transform="translate(-5.462 3.397) rotate(-31.88)" fill="#fff"></rect></g></g><g id="Group_14" data-name="Group 14" transform="translate(283.251 0)"><g id="Group_13" data-name="Group 13" clip-path="url(#clip-path-3)"><rect id="Rectangle_12" data-name="Rectangle 12" width="74.846" height="52.892" transform="translate(-5.462 3.397) rotate(-31.88)" fill="#fff"></rect></g></g><g id="Group_16" data-name="Group 16" transform="translate(283.251 42.232)"><g id="Group_15" data-name="Group 15" clip-path="url(#clip-path-3)"><rect id="Rectangle_14" data-name="Rectangle 14" width="74.846" height="52.892" transform="translate(-5.462 3.397) rotate(-31.88)" fill="#fff"></rect></g></g><g id="Group_18" data-name="Group 18" transform="translate(283.251 84.002)"><g id="Group_17" data-name="Group 17" clip-path="url(#clip-path-6)"><rect id="Rectangle_16" data-name="Rectangle 16" width="74.846" height="52.891" transform="translate(-5.462 3.397) rotate(-31.88)" fill="#fff"></rect></g></g><g id="Group_20" data-name="Group 20" transform="translate(66.406 122.785)"><g id="Group_19" data-name="Group 19" clip-path="url(#clip-path-10)"><rect id="Rectangle_18" data-name="Rectangle 18" width="18.506" height="18.275" transform="translate(-5.828 3.624) rotate(-31.88)" fill="#fff"></rect></g></g><g id="Group_22" data-name="Group 22" transform="translate(93.187 122.785)"><g id="Group_21" data-name="Group 21" clip-path="url(#clip-path-11)"><rect id="Rectangle_19" data-name="Rectangle 19" width="19.277" height="18.755" transform="matrix(0.849, -0.528, 0.528, 0.849, -5.828, 3.624)" fill="#fff"></rect></g></g><g id="Group_24" data-name="Group 24" transform="translate(120.611 122.56)"><g id="Group_23" data-name="Group 23" clip-path="url(#clip-path-12)"><rect id="Rectangle_20" data-name="Rectangle 20" width="21.298" height="20.247" transform="matrix(0.849, -0.528, 0.528, 0.849, -6.03, 3.75)" fill="#fff"></rect></g></g><g id="Group_26" data-name="Group 26" transform="translate(167.1 122.56)"><g id="Group_25" data-name="Group 25" clip-path="url(#clip-path-13)"><rect id="Rectangle_21" data-name="Rectangle 21" width="20.864" height="19.977" transform="translate(-6.03 3.75) rotate(-31.88)" fill="#fff"></rect></g></g><g id="Group_28" data-name="Group 28" transform="translate(197.418 122.785)"><g id="Group_27" data-name="Group 27" clip-path="url(#clip-path-14)"><rect id="Rectangle_22" data-name="Rectangle 22" width="19.277" height="18.756" transform="translate(-5.828 3.624) rotate(-31.88)" fill="#fff"></rect></g></g><g id="Group_30" data-name="Group 30" transform="translate(224.842 122.56)"><g id="Group_29" data-name="Group 29" clip-path="url(#clip-path-15)"><rect id="Rectangle_23" data-name="Rectangle 23" width="21.298" height="20.247" transform="matrix(0.849, -0.528, 0.528, 0.849, -6.03, 3.75)" fill="#fff"></rect></g></g><g id="Group_32" data-name="Group 32" transform="translate(255.141 122.785)"><g id="Group_31" data-name="Group 31" clip-path="url(#clip-path-16)"><rect id="Rectangle_24" data-name="Rectangle 24" width="19.22" height="18.837" transform="translate(-5.929 3.687) rotate(-31.88)" fill="#fff"></rect></g></g><g id="Group_34" data-name="Group 34" transform="translate(283.701 122.785)"><g id="Group_33" data-name="Group 33" clip-path="url(#clip-path-17)"><rect id="Rectangle_25" data-name="Rectangle 25" width="18.506" height="18.276" transform="translate(-5.828 3.624) rotate(-31.88)" fill="#fff"></rect></g></g></svg>